<mxfile host="app.diagrams.net" modified="2022-07-19T17:24:59.646Z" agent="5.0 (Macintosh; Intel Mac OS X 10_15_7) AppleWebKit/537.36 (KHTML, like Gecko) Chrome/103.0.0.0 Safari/537.36" etag="Y7Zij-d2-BJpRRqHXA9t" version="20.1.1" type="github">
  <diagram id="VXJa3HSxTeP06-adV4TN" name="Page-1">
    <mxGraphModel dx="2583" dy="1428" grid="1" gridSize="10" guides="1" tooltips="1" connect="1" arrows="1" fold="1" page="1" pageScale="1" pageWidth="1600" pageHeight="900" math="0" shadow="0">
      <root>
        <mxCell id="0" />
        <mxCell id="1" parent="0" />
        <mxCell id="glmr9BxrNnxyivZ2eAfm-76" style="edgeStyle=none;rounded=0;orthogonalLoop=1;jettySize=auto;html=1;entryX=0.5;entryY=0;entryDx=0;entryDy=0;fontSize=14;" parent="1" source="PhBX2D7lwxs2gd5kTWM1-1" target="glmr9BxrNnxyivZ2eAfm-75" edge="1">
          <mxGeometry relative="1" as="geometry" />
        </mxCell>
        <mxCell id="PhBX2D7lwxs2gd5kTWM1-1" value="&lt;font style=&quot;font-size: 24px;&quot;&gt;登入/註冊&lt;/font&gt;" style="rounded=1;whiteSpace=wrap;html=1;" parent="1" vertex="1">
          <mxGeometry x="350" y="-70" width="126" height="60" as="geometry" />
        </mxCell>
        <mxCell id="glmr9BxrNnxyivZ2eAfm-1" value="&lt;font style=&quot;font-size: 24px;&quot;&gt;登入成功&lt;/font&gt;" style="rounded=1;whiteSpace=wrap;html=1;" parent="1" vertex="1">
          <mxGeometry x="356" y="700" width="114" height="60" as="geometry" />
        </mxCell>
        <mxCell id="glmr9BxrNnxyivZ2eAfm-7" style="edgeStyle=none;rounded=0;orthogonalLoop=1;jettySize=auto;html=1;exitX=1;exitY=0.5;exitDx=0;exitDy=0;entryX=0;entryY=0.5;entryDx=0;entryDy=0;fontSize=14;" parent="1" source="glmr9BxrNnxyivZ2eAfm-2" target="glmr9BxrNnxyivZ2eAfm-5" edge="1">
          <mxGeometry relative="1" as="geometry" />
        </mxCell>
        <mxCell id="glmr9BxrNnxyivZ2eAfm-16" style="edgeStyle=none;rounded=0;orthogonalLoop=1;jettySize=auto;html=1;entryX=0.5;entryY=0;entryDx=0;entryDy=0;fontSize=14;" parent="1" source="glmr9BxrNnxyivZ2eAfm-2" target="glmr9BxrNnxyivZ2eAfm-4" edge="1">
          <mxGeometry relative="1" as="geometry" />
        </mxCell>
        <mxCell id="glmr9BxrNnxyivZ2eAfm-2" value="&lt;font style=&quot;font-size: 14px;&quot;&gt;是否有會員？&lt;/font&gt;" style="rhombus;whiteSpace=wrap;html=1;fontSize=24;" parent="1" vertex="1">
          <mxGeometry x="346" y="160" width="134" height="80" as="geometry" />
        </mxCell>
        <mxCell id="glmr9BxrNnxyivZ2eAfm-46" style="edgeStyle=none;rounded=0;orthogonalLoop=1;jettySize=auto;html=1;entryX=0.5;entryY=0;entryDx=0;entryDy=0;fontSize=14;" parent="1" source="glmr9BxrNnxyivZ2eAfm-4" target="glmr9BxrNnxyivZ2eAfm-17" edge="1">
          <mxGeometry relative="1" as="geometry" />
        </mxCell>
        <mxCell id="glmr9BxrNnxyivZ2eAfm-70" style="edgeStyle=none;rounded=0;orthogonalLoop=1;jettySize=auto;html=1;entryX=1;entryY=0.5;entryDx=0;entryDy=0;fontSize=14;" parent="1" source="glmr9BxrNnxyivZ2eAfm-4" target="glmr9BxrNnxyivZ2eAfm-8" edge="1">
          <mxGeometry relative="1" as="geometry" />
        </mxCell>
        <mxCell id="glmr9BxrNnxyivZ2eAfm-4" value="登入" style="rounded=0;whiteSpace=wrap;html=1;fontSize=14;" parent="1" vertex="1">
          <mxGeometry x="354" y="270" width="120" height="60" as="geometry" />
        </mxCell>
        <mxCell id="glmr9BxrNnxyivZ2eAfm-11" style="edgeStyle=none;rounded=0;orthogonalLoop=1;jettySize=auto;html=1;fontSize=14;" parent="1" source="glmr9BxrNnxyivZ2eAfm-5" target="glmr9BxrNnxyivZ2eAfm-9" edge="1">
          <mxGeometry relative="1" as="geometry" />
        </mxCell>
        <mxCell id="glmr9BxrNnxyivZ2eAfm-5" value="註冊" style="rounded=0;whiteSpace=wrap;html=1;fontSize=14;" parent="1" vertex="1">
          <mxGeometry x="550" y="170" width="120" height="60" as="geometry" />
        </mxCell>
        <mxCell id="glmr9BxrNnxyivZ2eAfm-72" style="edgeStyle=none;rounded=0;orthogonalLoop=1;jettySize=auto;html=1;entryX=1;entryY=0.5;entryDx=0;entryDy=0;fontSize=14;" parent="1" source="glmr9BxrNnxyivZ2eAfm-8" target="glmr9BxrNnxyivZ2eAfm-45" edge="1">
          <mxGeometry relative="1" as="geometry" />
        </mxCell>
        <mxCell id="glmr9BxrNnxyivZ2eAfm-8" value="忘記密碼" style="rounded=0;whiteSpace=wrap;html=1;fontSize=14;" parent="1" vertex="1">
          <mxGeometry x="200" y="270" width="120" height="60" as="geometry" />
        </mxCell>
        <mxCell id="glmr9BxrNnxyivZ2eAfm-30" style="edgeStyle=none;rounded=0;orthogonalLoop=1;jettySize=auto;html=1;fontSize=14;" parent="1" source="glmr9BxrNnxyivZ2eAfm-9" target="glmr9BxrNnxyivZ2eAfm-29" edge="1">
          <mxGeometry relative="1" as="geometry" />
        </mxCell>
        <mxCell id="glmr9BxrNnxyivZ2eAfm-9" value="填寫會員資料" style="shape=parallelogram;perimeter=parallelogramPerimeter;whiteSpace=wrap;html=1;fixedSize=1;fontSize=14;" parent="1" vertex="1">
          <mxGeometry x="710" y="170" width="120" height="60" as="geometry" />
        </mxCell>
        <mxCell id="glmr9BxrNnxyivZ2eAfm-12" value="是" style="text;html=1;resizable=0;autosize=1;align=center;verticalAlign=middle;points=[];fillColor=none;strokeColor=none;rounded=0;fontSize=14;" parent="1" vertex="1">
          <mxGeometry x="410" y="240" width="40" height="30" as="geometry" />
        </mxCell>
        <mxCell id="glmr9BxrNnxyivZ2eAfm-13" value="否" style="text;html=1;resizable=0;autosize=1;align=center;verticalAlign=middle;points=[];fillColor=none;strokeColor=none;rounded=0;fontSize=14;" parent="1" vertex="1">
          <mxGeometry x="484" y="170" width="40" height="30" as="geometry" />
        </mxCell>
        <mxCell id="glmr9BxrNnxyivZ2eAfm-23" style="edgeStyle=none;rounded=0;orthogonalLoop=1;jettySize=auto;html=1;entryX=0.5;entryY=0;entryDx=0;entryDy=0;fontSize=14;exitX=0.489;exitY=1.005;exitDx=0;exitDy=0;exitPerimeter=0;" parent="1" source="glmr9BxrNnxyivZ2eAfm-17" target="glmr9BxrNnxyivZ2eAfm-22" edge="1">
          <mxGeometry relative="1" as="geometry" />
        </mxCell>
        <mxCell id="glmr9BxrNnxyivZ2eAfm-17" value="輸入email、密碼" style="shape=parallelogram;perimeter=parallelogramPerimeter;whiteSpace=wrap;html=1;fixedSize=1;fontSize=14;" parent="1" vertex="1">
          <mxGeometry x="350" y="470" width="130" height="60" as="geometry" />
        </mxCell>
        <mxCell id="glmr9BxrNnxyivZ2eAfm-38" style="edgeStyle=none;rounded=0;orthogonalLoop=1;jettySize=auto;html=1;entryX=0.5;entryY=0;entryDx=0;entryDy=0;fontSize=14;" parent="1" source="glmr9BxrNnxyivZ2eAfm-22" target="glmr9BxrNnxyivZ2eAfm-1" edge="1">
          <mxGeometry relative="1" as="geometry" />
        </mxCell>
        <mxCell id="glmr9BxrNnxyivZ2eAfm-64" style="edgeStyle=none;rounded=0;orthogonalLoop=1;jettySize=auto;html=1;fontSize=14;entryX=1;entryY=0.75;entryDx=0;entryDy=0;" parent="1" source="glmr9BxrNnxyivZ2eAfm-22" target="glmr9BxrNnxyivZ2eAfm-4" edge="1">
          <mxGeometry relative="1" as="geometry">
            <mxPoint x="520" y="320" as="targetPoint" />
            <Array as="points">
              <mxPoint x="520" y="610" />
              <mxPoint x="520" y="315" />
            </Array>
          </mxGeometry>
        </mxCell>
        <mxCell id="glmr9BxrNnxyivZ2eAfm-22" value="&lt;font style=&quot;font-size: 14px;&quot;&gt;帳密是否正確？&lt;br&gt;&lt;/font&gt;" style="rhombus;whiteSpace=wrap;html=1;fontSize=24;" parent="1" vertex="1">
          <mxGeometry x="344" y="570" width="140" height="80" as="geometry" />
        </mxCell>
        <mxCell id="glmr9BxrNnxyivZ2eAfm-24" value="否" style="text;html=1;resizable=0;autosize=1;align=center;verticalAlign=middle;points=[];fillColor=none;strokeColor=none;rounded=0;fontSize=14;" parent="1" vertex="1">
          <mxGeometry x="477" y="580" width="40" height="30" as="geometry" />
        </mxCell>
        <mxCell id="glmr9BxrNnxyivZ2eAfm-25" value="是" style="text;html=1;resizable=0;autosize=1;align=center;verticalAlign=middle;points=[];fillColor=none;strokeColor=none;rounded=0;fontSize=14;" parent="1" vertex="1">
          <mxGeometry x="380" y="650" width="40" height="30" as="geometry" />
        </mxCell>
        <mxCell id="glmr9BxrNnxyivZ2eAfm-36" style="edgeStyle=none;rounded=0;orthogonalLoop=1;jettySize=auto;html=1;entryX=1;entryY=0.5;entryDx=0;entryDy=0;fontSize=14;" parent="1" source="glmr9BxrNnxyivZ2eAfm-26" target="glmr9BxrNnxyivZ2eAfm-4" edge="1">
          <mxGeometry relative="1" as="geometry" />
        </mxCell>
        <mxCell id="glmr9BxrNnxyivZ2eAfm-26" value="註冊成功" style="rounded=0;whiteSpace=wrap;html=1;fontSize=14;" parent="1" vertex="1">
          <mxGeometry x="888" y="270" width="120" height="60" as="geometry" />
        </mxCell>
        <mxCell id="glmr9BxrNnxyivZ2eAfm-31" style="edgeStyle=none;rounded=0;orthogonalLoop=1;jettySize=auto;html=1;entryX=0.5;entryY=0;entryDx=0;entryDy=0;fontSize=14;" parent="1" source="glmr9BxrNnxyivZ2eAfm-29" target="glmr9BxrNnxyivZ2eAfm-26" edge="1">
          <mxGeometry relative="1" as="geometry" />
        </mxCell>
        <mxCell id="glmr9BxrNnxyivZ2eAfm-35" style="edgeStyle=none;rounded=0;orthogonalLoop=1;jettySize=auto;html=1;fontSize=14;exitX=0.5;exitY=0;exitDx=0;exitDy=0;entryX=0.75;entryY=0;entryDx=0;entryDy=0;" parent="1" source="glmr9BxrNnxyivZ2eAfm-29" target="glmr9BxrNnxyivZ2eAfm-9" edge="1">
          <mxGeometry relative="1" as="geometry">
            <Array as="points">
              <mxPoint x="948" y="120" />
              <mxPoint x="800" y="120" />
            </Array>
          </mxGeometry>
        </mxCell>
        <mxCell id="glmr9BxrNnxyivZ2eAfm-29" value="&lt;font style=&quot;font-size: 14px;&quot;&gt;資料是否正確？&lt;br&gt;&lt;/font&gt;" style="rhombus;whiteSpace=wrap;html=1;fontSize=24;" parent="1" vertex="1">
          <mxGeometry x="883" y="160" width="130" height="80" as="geometry" />
        </mxCell>
        <mxCell id="glmr9BxrNnxyivZ2eAfm-32" value="是" style="text;html=1;resizable=0;autosize=1;align=center;verticalAlign=middle;points=[];fillColor=none;strokeColor=none;rounded=0;fontSize=14;" parent="1" vertex="1">
          <mxGeometry x="960" y="240" width="40" height="30" as="geometry" />
        </mxCell>
        <mxCell id="glmr9BxrNnxyivZ2eAfm-34" value="否" style="text;html=1;resizable=0;autosize=1;align=center;verticalAlign=middle;points=[];fillColor=none;strokeColor=none;rounded=0;fontSize=14;" parent="1" vertex="1">
          <mxGeometry x="848" y="90" width="40" height="30" as="geometry" />
        </mxCell>
        <mxCell id="glmr9BxrNnxyivZ2eAfm-73" style="edgeStyle=none;rounded=0;orthogonalLoop=1;jettySize=auto;html=1;entryX=0.5;entryY=0;entryDx=0;entryDy=0;fontSize=14;" parent="1" source="glmr9BxrNnxyivZ2eAfm-45" target="glmr9BxrNnxyivZ2eAfm-51" edge="1">
          <mxGeometry relative="1" as="geometry" />
        </mxCell>
        <mxCell id="glmr9BxrNnxyivZ2eAfm-45" value="填寫會員email" style="shape=parallelogram;perimeter=parallelogramPerimeter;whiteSpace=wrap;html=1;fixedSize=1;fontSize=14;" parent="1" vertex="1">
          <mxGeometry x="30" y="270" width="130" height="60" as="geometry" />
        </mxCell>
        <mxCell id="glmr9BxrNnxyivZ2eAfm-69" style="edgeStyle=none;rounded=0;orthogonalLoop=1;jettySize=auto;html=1;entryX=0.521;entryY=0.008;entryDx=0;entryDy=0;entryPerimeter=0;fontSize=14;" parent="1" source="glmr9BxrNnxyivZ2eAfm-47" target="glmr9BxrNnxyivZ2eAfm-50" edge="1">
          <mxGeometry relative="1" as="geometry" />
        </mxCell>
        <mxCell id="glmr9BxrNnxyivZ2eAfm-47" value="寄發email重設信" style="whiteSpace=wrap;html=1;fontSize=14;" parent="1" vertex="1">
          <mxGeometry x="35" y="470" width="120" height="60" as="geometry" />
        </mxCell>
        <mxCell id="glmr9BxrNnxyivZ2eAfm-67" style="edgeStyle=none;rounded=0;orthogonalLoop=1;jettySize=auto;html=1;fontSize=14;entryX=0.25;entryY=1;entryDx=0;entryDy=0;" parent="1" source="glmr9BxrNnxyivZ2eAfm-50" target="glmr9BxrNnxyivZ2eAfm-4" edge="1">
          <mxGeometry relative="1" as="geometry">
            <mxPoint x="250" y="610" as="targetPoint" />
            <Array as="points">
              <mxPoint x="200" y="610" />
              <mxPoint x="200" y="390" />
              <mxPoint x="384" y="390" />
            </Array>
          </mxGeometry>
        </mxCell>
        <mxCell id="glmr9BxrNnxyivZ2eAfm-50" value="重設密碼" style="shape=parallelogram;perimeter=parallelogramPerimeter;whiteSpace=wrap;html=1;fixedSize=1;fontSize=14;" parent="1" vertex="1">
          <mxGeometry x="28" y="580" width="130" height="60" as="geometry" />
        </mxCell>
        <mxCell id="glmr9BxrNnxyivZ2eAfm-66" style="edgeStyle=none;rounded=0;orthogonalLoop=1;jettySize=auto;html=1;exitX=0;exitY=0.5;exitDx=0;exitDy=0;fontSize=14;entryX=0;entryY=0.5;entryDx=0;entryDy=0;" parent="1" source="glmr9BxrNnxyivZ2eAfm-51" target="glmr9BxrNnxyivZ2eAfm-75" edge="1">
          <mxGeometry relative="1" as="geometry">
            <mxPoint x="340" y="200" as="targetPoint" />
            <Array as="points">
              <mxPoint x="-40" y="400" />
              <mxPoint x="-40" y="70" />
            </Array>
          </mxGeometry>
        </mxCell>
        <mxCell id="glmr9BxrNnxyivZ2eAfm-68" style="edgeStyle=none;rounded=0;orthogonalLoop=1;jettySize=auto;html=1;entryX=0.5;entryY=0;entryDx=0;entryDy=0;fontSize=14;" parent="1" source="glmr9BxrNnxyivZ2eAfm-51" target="glmr9BxrNnxyivZ2eAfm-47" edge="1">
          <mxGeometry relative="1" as="geometry" />
        </mxCell>
        <mxCell id="glmr9BxrNnxyivZ2eAfm-51" value="&lt;font style=&quot;font-size: 14px;&quot;&gt;是否有此會員？&lt;/font&gt;" style="rhombus;whiteSpace=wrap;html=1;fontSize=24;" parent="1" vertex="1">
          <mxGeometry x="28" y="360" width="134" height="80" as="geometry" />
        </mxCell>
        <mxCell id="glmr9BxrNnxyivZ2eAfm-53" value="是" style="text;html=1;resizable=0;autosize=1;align=center;verticalAlign=middle;points=[];fillColor=none;strokeColor=none;rounded=0;fontSize=14;" parent="1" vertex="1">
          <mxGeometry x="100" y="435" width="40" height="30" as="geometry" />
        </mxCell>
        <mxCell id="glmr9BxrNnxyivZ2eAfm-55" value="否" style="text;html=1;resizable=0;autosize=1;align=center;verticalAlign=middle;points=[];fillColor=none;strokeColor=none;rounded=0;fontSize=14;" parent="1" vertex="1">
          <mxGeometry x="-12" y="360" width="40" height="30" as="geometry" />
        </mxCell>
        <mxCell id="glmr9BxrNnxyivZ2eAfm-65" style="edgeStyle=none;rounded=0;orthogonalLoop=1;jettySize=auto;html=1;exitX=1;exitY=0;exitDx=0;exitDy=0;fontSize=14;" parent="1" edge="1">
          <mxGeometry relative="1" as="geometry">
            <mxPoint x="122.5" y="700" as="sourcePoint" />
            <mxPoint x="122.5" y="700" as="targetPoint" />
          </mxGeometry>
        </mxCell>
        <mxCell id="glmr9BxrNnxyivZ2eAfm-77" style="edgeStyle=none;rounded=0;orthogonalLoop=1;jettySize=auto;html=1;exitX=0.5;exitY=1;exitDx=0;exitDy=0;entryX=0.5;entryY=0;entryDx=0;entryDy=0;fontSize=14;" parent="1" source="glmr9BxrNnxyivZ2eAfm-75" target="glmr9BxrNnxyivZ2eAfm-2" edge="1">
          <mxGeometry relative="1" as="geometry" />
        </mxCell>
        <mxCell id="glmr9BxrNnxyivZ2eAfm-75" value="登入註冊頁" style="rounded=0;whiteSpace=wrap;html=1;fontSize=14;" parent="1" vertex="1">
          <mxGeometry x="353" y="40" width="120" height="60" as="geometry" />
        </mxCell>
        <mxCell id="u54B39evB33SZoz744Zc-1" style="edgeStyle=none;rounded=0;orthogonalLoop=1;jettySize=auto;html=1;entryX=0.5;entryY=0;entryDx=0;entryDy=0;fontSize=14;" parent="1" source="u54B39evB33SZoz744Zc-2" target="u54B39evB33SZoz744Zc-45" edge="1">
          <mxGeometry relative="1" as="geometry" />
        </mxCell>
        <mxCell id="u54B39evB33SZoz744Zc-2" value="&lt;span style=&quot;font-size: 24px;&quot;&gt;小幫手&lt;/span&gt;" style="rounded=1;whiteSpace=wrap;html=1;" parent="1" vertex="1">
          <mxGeometry x="-530" y="-310" width="126" height="60" as="geometry" />
        </mxCell>
        <mxCell id="u54B39evB33SZoz744Zc-3" value="&lt;font style=&quot;font-size: 24px;&quot;&gt;報名成功&lt;/font&gt;" style="rounded=1;whiteSpace=wrap;html=1;" parent="1" vertex="1">
          <mxGeometry x="-524" y="800" width="114" height="60" as="geometry" />
        </mxCell>
        <mxCell id="u54B39evB33SZoz744Zc-28" style="edgeStyle=none;rounded=0;orthogonalLoop=1;jettySize=auto;html=1;fontSize=14;exitX=0.5;exitY=0;exitDx=0;exitDy=0;entryX=0.75;entryY=0;entryDx=0;entryDy=0;" parent="1" edge="1">
          <mxGeometry relative="1" as="geometry">
            <Array as="points">
              <mxPoint x="-462" y="120" />
              <mxPoint x="-610" y="120" />
            </Array>
            <mxPoint x="-610" y="170" as="targetPoint" />
          </mxGeometry>
        </mxCell>
        <mxCell id="u54B39evB33SZoz744Zc-43" style="edgeStyle=none;rounded=0;orthogonalLoop=1;jettySize=auto;html=1;exitX=1;exitY=0;exitDx=0;exitDy=0;fontSize=14;" parent="1" edge="1">
          <mxGeometry relative="1" as="geometry">
            <mxPoint x="-1287.5" y="700" as="sourcePoint" />
            <mxPoint x="-1287.5" y="700" as="targetPoint" />
          </mxGeometry>
        </mxCell>
        <mxCell id="u54B39evB33SZoz744Zc-47" value="" style="edgeStyle=none;rounded=0;orthogonalLoop=1;jettySize=auto;html=1;fontSize=14;" parent="1" source="u54B39evB33SZoz744Zc-45" target="u54B39evB33SZoz744Zc-46" edge="1">
          <mxGeometry relative="1" as="geometry" />
        </mxCell>
        <mxCell id="u54B39evB33SZoz744Zc-50" style="edgeStyle=none;rounded=0;orthogonalLoop=1;jettySize=auto;html=1;entryX=0;entryY=0.5;entryDx=0;entryDy=0;fontSize=14;" parent="1" source="u54B39evB33SZoz744Zc-45" target="u54B39evB33SZoz744Zc-49" edge="1">
          <mxGeometry relative="1" as="geometry" />
        </mxCell>
        <mxCell id="u54B39evB33SZoz744Zc-45" value="首頁" style="rounded=0;whiteSpace=wrap;html=1;fontSize=14;" parent="1" vertex="1">
          <mxGeometry x="-527" y="-200" width="120" height="60" as="geometry" />
        </mxCell>
        <mxCell id="u54B39evB33SZoz744Zc-53" value="" style="edgeStyle=none;rounded=0;orthogonalLoop=1;jettySize=auto;html=1;fontSize=14;" parent="1" source="u54B39evB33SZoz744Zc-46" target="u54B39evB33SZoz744Zc-52" edge="1">
          <mxGeometry relative="1" as="geometry" />
        </mxCell>
        <mxCell id="u54B39evB33SZoz744Zc-61" style="edgeStyle=none;rounded=0;orthogonalLoop=1;jettySize=auto;html=1;entryX=0.5;entryY=0;entryDx=0;entryDy=0;fontSize=14;" parent="1" source="u54B39evB33SZoz744Zc-46" target="u54B39evB33SZoz744Zc-48" edge="1">
          <mxGeometry relative="1" as="geometry" />
        </mxCell>
        <mxCell id="u54B39evB33SZoz744Zc-46" value="搜尋" style="whiteSpace=wrap;html=1;fontSize=14;rounded=0;" parent="1" vertex="1">
          <mxGeometry x="-527" y="-80" width="120" height="60" as="geometry" />
        </mxCell>
        <mxCell id="u54B39evB33SZoz744Zc-55" value="" style="edgeStyle=none;rounded=0;orthogonalLoop=1;jettySize=auto;html=1;fontSize=14;" parent="1" source="u54B39evB33SZoz744Zc-48" target="u54B39evB33SZoz744Zc-54" edge="1">
          <mxGeometry relative="1" as="geometry" />
        </mxCell>
        <mxCell id="u54B39evB33SZoz744Zc-48" value="直接搜尋" style="whiteSpace=wrap;html=1;fontSize=14;rounded=0;" parent="1" vertex="1">
          <mxGeometry x="-527" y="30" width="120" height="60" as="geometry" />
        </mxCell>
        <mxCell id="u54B39evB33SZoz744Zc-66" style="edgeStyle=none;rounded=0;orthogonalLoop=1;jettySize=auto;html=1;fontSize=14;entryX=1;entryY=0.75;entryDx=0;entryDy=0;" parent="1" source="u54B39evB33SZoz744Zc-49" target="u54B39evB33SZoz744Zc-54" edge="1">
          <mxGeometry relative="1" as="geometry">
            <mxPoint x="-150" y="190" as="targetPoint" />
            <Array as="points">
              <mxPoint x="-150" y="-170" />
              <mxPoint x="-150" y="185" />
            </Array>
          </mxGeometry>
        </mxCell>
        <mxCell id="u54B39evB33SZoz744Zc-49" value="瀏覽熱門/最新/好評" style="rounded=0;whiteSpace=wrap;html=1;fontSize=14;" parent="1" vertex="1">
          <mxGeometry x="-330" y="-200" width="130" height="60" as="geometry" />
        </mxCell>
        <mxCell id="u54B39evB33SZoz744Zc-62" style="edgeStyle=none;rounded=0;orthogonalLoop=1;jettySize=auto;html=1;fontSize=14;entryX=1;entryY=0.5;entryDx=0;entryDy=0;" parent="1" source="u54B39evB33SZoz744Zc-52" target="u54B39evB33SZoz744Zc-54" edge="1">
          <mxGeometry relative="1" as="geometry">
            <mxPoint x="-267" y="170" as="targetPoint" />
            <Array as="points">
              <mxPoint x="-267" y="170" />
            </Array>
          </mxGeometry>
        </mxCell>
        <mxCell id="u54B39evB33SZoz744Zc-52" value="依條件/分類搜尋" style="whiteSpace=wrap;html=1;fontSize=14;rounded=0;" parent="1" vertex="1">
          <mxGeometry x="-327" y="-80" width="120" height="60" as="geometry" />
        </mxCell>
        <mxCell id="u54B39evB33SZoz744Zc-57" value="" style="edgeStyle=none;rounded=0;orthogonalLoop=1;jettySize=auto;html=1;fontSize=14;" parent="1" source="u54B39evB33SZoz744Zc-54" target="u54B39evB33SZoz744Zc-56" edge="1">
          <mxGeometry relative="1" as="geometry" />
        </mxCell>
        <mxCell id="u54B39evB33SZoz744Zc-54" value="瀏覽" style="whiteSpace=wrap;html=1;fontSize=14;rounded=0;" parent="1" vertex="1">
          <mxGeometry x="-527" y="140" width="120" height="60" as="geometry" />
        </mxCell>
        <mxCell id="u54B39evB33SZoz744Zc-59" value="" style="edgeStyle=none;rounded=0;orthogonalLoop=1;jettySize=auto;html=1;fontSize=14;" parent="1" source="u54B39evB33SZoz744Zc-56" target="u54B39evB33SZoz744Zc-58" edge="1">
          <mxGeometry relative="1" as="geometry" />
        </mxCell>
        <mxCell id="u54B39evB33SZoz744Zc-56" value="應徵報名" style="whiteSpace=wrap;html=1;fontSize=14;rounded=0;" parent="1" vertex="1">
          <mxGeometry x="-527" y="250" width="120" height="60" as="geometry" />
        </mxCell>
        <mxCell id="u54B39evB33SZoz744Zc-67" style="edgeStyle=none;rounded=0;orthogonalLoop=1;jettySize=auto;html=1;entryX=0.5;entryY=0;entryDx=0;entryDy=0;fontSize=14;" parent="1" source="u54B39evB33SZoz744Zc-58" target="u54B39evB33SZoz744Zc-60" edge="1">
          <mxGeometry relative="1" as="geometry" />
        </mxCell>
        <mxCell id="u54B39evB33SZoz744Zc-58" value="登入/註冊流程" style="whiteSpace=wrap;html=1;fontSize=14;rounded=0;" parent="1" vertex="1">
          <mxGeometry x="-527" y="360" width="120" height="60" as="geometry" />
        </mxCell>
        <mxCell id="u54B39evB33SZoz744Zc-99" style="edgeStyle=none;rounded=0;orthogonalLoop=1;jettySize=auto;html=1;entryX=0.5;entryY=0;entryDx=0;entryDy=0;fontSize=14;" parent="1" source="u54B39evB33SZoz744Zc-60" target="u54B39evB33SZoz744Zc-97" edge="1">
          <mxGeometry relative="1" as="geometry" />
        </mxCell>
        <mxCell id="u54B39evB33SZoz744Zc-60" value="報名成功" style="whiteSpace=wrap;html=1;fontSize=14;rounded=0;" parent="1" vertex="1">
          <mxGeometry x="-527" y="470" width="120" height="60" as="geometry" />
        </mxCell>
        <mxCell id="u54B39evB33SZoz744Zc-101" style="edgeStyle=none;rounded=0;orthogonalLoop=1;jettySize=auto;html=1;entryX=0.5;entryY=0;entryDx=0;entryDy=0;fontSize=14;" parent="1" source="u54B39evB33SZoz744Zc-63" target="u54B39evB33SZoz744Zc-3" edge="1">
          <mxGeometry relative="1" as="geometry" />
        </mxCell>
        <mxCell id="u54B39evB33SZoz744Zc-63" value="業主審核流程" style="whiteSpace=wrap;html=1;fontSize=14;rounded=0;" parent="1" vertex="1">
          <mxGeometry x="-527" y="690" width="120" height="60" as="geometry" />
        </mxCell>
        <mxCell id="u54B39evB33SZoz744Zc-70" style="edgeStyle=none;rounded=0;orthogonalLoop=1;jettySize=auto;html=1;entryX=0.5;entryY=0;entryDx=0;entryDy=0;fontSize=14;" parent="1" source="u54B39evB33SZoz744Zc-71" target="u54B39evB33SZoz744Zc-75" edge="1">
          <mxGeometry relative="1" as="geometry" />
        </mxCell>
        <mxCell id="u54B39evB33SZoz744Zc-71" value="&lt;span style=&quot;font-size: 24px;&quot;&gt;業主&lt;/span&gt;" style="rounded=1;whiteSpace=wrap;html=1;" parent="1" vertex="1">
          <mxGeometry x="-1200" y="-310" width="126" height="60" as="geometry" />
        </mxCell>
        <mxCell id="u54B39evB33SZoz744Zc-72" value="&lt;font style=&quot;font-size: 24px;&quot;&gt;招募成功&lt;/font&gt;" style="rounded=1;whiteSpace=wrap;html=1;" parent="1" vertex="1">
          <mxGeometry x="-1194" y="620" width="114" height="60" as="geometry" />
        </mxCell>
        <mxCell id="u54B39evB33SZoz744Zc-73" value="" style="edgeStyle=none;rounded=0;orthogonalLoop=1;jettySize=auto;html=1;fontSize=14;" parent="1" source="u54B39evB33SZoz744Zc-75" target="u54B39evB33SZoz744Zc-78" edge="1">
          <mxGeometry relative="1" as="geometry" />
        </mxCell>
        <mxCell id="u54B39evB33SZoz744Zc-75" value="首頁" style="rounded=0;whiteSpace=wrap;html=1;fontSize=14;" parent="1" vertex="1">
          <mxGeometry x="-1197" y="-200" width="120" height="60" as="geometry" />
        </mxCell>
        <mxCell id="u54B39evB33SZoz744Zc-77" style="edgeStyle=none;rounded=0;orthogonalLoop=1;jettySize=auto;html=1;entryX=0.5;entryY=0;entryDx=0;entryDy=0;fontSize=14;" parent="1" source="u54B39evB33SZoz744Zc-78" target="u54B39evB33SZoz744Zc-80" edge="1">
          <mxGeometry relative="1" as="geometry" />
        </mxCell>
        <mxCell id="u54B39evB33SZoz744Zc-78" value="登入/註冊流程" style="whiteSpace=wrap;html=1;fontSize=14;rounded=0;" parent="1" vertex="1">
          <mxGeometry x="-1197" y="-80" width="120" height="60" as="geometry" />
        </mxCell>
        <mxCell id="u54B39evB33SZoz744Zc-79" value="" style="edgeStyle=none;rounded=0;orthogonalLoop=1;jettySize=auto;html=1;fontSize=14;" parent="1" source="u54B39evB33SZoz744Zc-80" target="u54B39evB33SZoz744Zc-86" edge="1">
          <mxGeometry relative="1" as="geometry" />
        </mxCell>
        <mxCell id="u54B39evB33SZoz744Zc-80" value="刊登職缺" style="whiteSpace=wrap;html=1;fontSize=14;rounded=0;" parent="1" vertex="1">
          <mxGeometry x="-1197" y="30" width="120" height="60" as="geometry" />
        </mxCell>
        <mxCell id="u54B39evB33SZoz744Zc-85" value="" style="edgeStyle=none;rounded=0;orthogonalLoop=1;jettySize=auto;html=1;fontSize=14;" parent="1" source="u54B39evB33SZoz744Zc-86" target="u54B39evB33SZoz744Zc-88" edge="1">
          <mxGeometry relative="1" as="geometry" />
        </mxCell>
        <mxCell id="u54B39evB33SZoz744Zc-86" value="小幫手應徵" style="whiteSpace=wrap;html=1;fontSize=14;rounded=0;" parent="1" vertex="1">
          <mxGeometry x="-1197" y="140" width="120" height="60" as="geometry" />
        </mxCell>
        <mxCell id="u54B39evB33SZoz744Zc-87" value="" style="edgeStyle=none;rounded=0;orthogonalLoop=1;jettySize=auto;html=1;fontSize=14;" parent="1" source="u54B39evB33SZoz744Zc-88" target="u54B39evB33SZoz744Zc-90" edge="1">
          <mxGeometry relative="1" as="geometry" />
        </mxCell>
        <mxCell id="u54B39evB33SZoz744Zc-88" value="查詢有誰報名" style="whiteSpace=wrap;html=1;fontSize=14;rounded=0;" parent="1" vertex="1">
          <mxGeometry x="-1197" y="250" width="120" height="60" as="geometry" />
        </mxCell>
        <mxCell id="u54B39evB33SZoz744Zc-89" style="edgeStyle=none;rounded=0;orthogonalLoop=1;jettySize=auto;html=1;entryX=0.5;entryY=0;entryDx=0;entryDy=0;fontSize=14;" parent="1" source="u54B39evB33SZoz744Zc-90" target="u54B39evB33SZoz744Zc-92" edge="1">
          <mxGeometry relative="1" as="geometry" />
        </mxCell>
        <mxCell id="u54B39evB33SZoz744Zc-90" value="審核通過" style="whiteSpace=wrap;html=1;fontSize=14;rounded=0;" parent="1" vertex="1">
          <mxGeometry x="-1197" y="370" width="120" height="60" as="geometry" />
        </mxCell>
        <mxCell id="u54B39evB33SZoz744Zc-91" style="edgeStyle=none;rounded=0;orthogonalLoop=1;jettySize=auto;html=1;exitX=0.5;exitY=1;exitDx=0;exitDy=0;entryX=0.5;entryY=0;entryDx=0;entryDy=0;fontSize=14;" parent="1" source="u54B39evB33SZoz744Zc-92" edge="1">
          <mxGeometry relative="1" as="geometry">
            <mxPoint x="-1137" y="620" as="targetPoint" />
          </mxGeometry>
        </mxCell>
        <mxCell id="u54B39evB33SZoz744Zc-92" value="通知使用者" style="whiteSpace=wrap;html=1;fontSize=14;rounded=0;strokeColor=#BABABA;fontColor=#BABABA;" parent="1" vertex="1">
          <mxGeometry x="-1197" y="490" width="120" height="60" as="geometry" />
        </mxCell>
        <mxCell id="u54B39evB33SZoz744Zc-100" style="edgeStyle=none;rounded=0;orthogonalLoop=1;jettySize=auto;html=1;entryX=0.5;entryY=0;entryDx=0;entryDy=0;fontSize=14;" parent="1" source="u54B39evB33SZoz744Zc-97" target="u54B39evB33SZoz744Zc-63" edge="1">
          <mxGeometry relative="1" as="geometry" />
        </mxCell>
        <mxCell id="u54B39evB33SZoz744Zc-97" value="查詢報名狀態" style="rounded=0;whiteSpace=wrap;html=1;fontSize=14;" parent="1" vertex="1">
          <mxGeometry x="-527" y="580" width="120" height="60" as="geometry" />
        </mxCell>
        <mxCell id="XKD9G24x41NN4T1CnMsb-26" value="&lt;div style=&quot;text-align: center; box-sizing: border-box; width: 100%; background: rgb(228, 228, 228); padding: 2px; font-size: 16px;&quot;&gt;&lt;b style=&quot;font-size: 16px;&quot;&gt;user&lt;/b&gt;&lt;/div&gt;&lt;table style=&quot;width: 100%; font-size: 16px;&quot; cellpadding=&quot;2&quot; cellspacing=&quot;0&quot;&gt;&lt;tbody style=&quot;font-size: 16px;&quot;&gt;&lt;tr style=&quot;font-size: 16px;&quot;&gt;&lt;td style=&quot;font-size: 16px;&quot;&gt;PK&lt;/td&gt;&lt;td style=&quot;font-size: 16px;&quot;&gt;_Id&lt;br style=&quot;font-size: 16px;&quot;&gt;&lt;/td&gt;&lt;/tr&gt;&lt;tr&gt;&lt;td&gt;&lt;br&gt;&lt;/td&gt;&lt;td&gt;accountl: String&lt;br&gt;&lt;/td&gt;&lt;/tr&gt;&lt;tr&gt;&lt;td&gt;&lt;br&gt;&lt;/td&gt;&lt;td&gt;password: String&lt;br&gt;&lt;/td&gt;&lt;/tr&gt;&lt;tr&gt;&lt;td&gt;&lt;br&gt;&lt;/td&gt;&lt;td&gt;role: Number&lt;br&gt;&lt;/td&gt;&lt;/tr&gt;&lt;tr&gt;&lt;td&gt;&lt;br&gt;&lt;/td&gt;&lt;td&gt;&lt;table style=&quot;width: 180px;&quot; cellpadding=&quot;2&quot; cellspacing=&quot;0&quot;&gt;&lt;tbody&gt;&lt;tr&gt;&lt;td&gt;&lt;/td&gt;&lt;/tr&gt;&lt;tr&gt;&lt;td style=&quot;border-collapse: collapse;&quot; border=&quot;1&quot;&gt;tokens: [String]&lt;/td&gt;&lt;/tr&gt;&lt;/tbody&gt;&lt;/table&gt;&lt;/td&gt;&lt;/tr&gt;&lt;tr&gt;&lt;td&gt;&lt;br&gt;&lt;/td&gt;&lt;td&gt;name: String&lt;br&gt;&lt;/td&gt;&lt;/tr&gt;&lt;tr&gt;&lt;td&gt;&lt;br&gt;&lt;/td&gt;&lt;td&gt;gender: String&lt;br&gt;&lt;/td&gt;&lt;/tr&gt;&lt;tr&gt;&lt;td&gt;&lt;br&gt;&lt;/td&gt;&lt;td&gt;birth: String&lt;br&gt;&lt;/td&gt;&lt;/tr&gt;&lt;tr&gt;&lt;td&gt;&lt;br&gt;&lt;/td&gt;&lt;td&gt;tel: String&lt;br&gt;&lt;/td&gt;&lt;/tr&gt;&lt;tr&gt;&lt;td&gt;&lt;br&gt;&lt;/td&gt;&lt;td&gt;email: String&lt;br&gt;&lt;/td&gt;&lt;/tr&gt;&lt;tr&gt;&lt;td&gt;&lt;br&gt;&lt;/td&gt;&lt;td&gt;city: String&lt;br&gt;&lt;/td&gt;&lt;/tr&gt;&lt;tr&gt;&lt;td&gt;&lt;br&gt;&lt;/td&gt;&lt;td&gt;dist: String&lt;br&gt;&lt;/td&gt;&lt;/tr&gt;&lt;tr&gt;&lt;td&gt;&lt;br&gt;&lt;/td&gt;&lt;td&gt;address: String&lt;br&gt;&lt;/td&gt;&lt;/tr&gt;&lt;tr&gt;&lt;td&gt;&lt;br&gt;&lt;/td&gt;&lt;td&gt;description: String&lt;br&gt;&lt;/td&gt;&lt;/tr&gt;&lt;tr&gt;&lt;td&gt;&lt;br&gt;&lt;/td&gt;&lt;td&gt;avatar: String&lt;br&gt;&lt;/td&gt;&lt;/tr&gt;&lt;tr&gt;&lt;td&gt;&lt;br&gt;&lt;/td&gt;&lt;td&gt;photos: String&lt;br&gt;&lt;/td&gt;&lt;/tr&gt;&lt;/tbody&gt;&lt;/table&gt;" style="verticalAlign=top;align=left;overflow=fill;html=1;shadow=1;labelBorderColor=default;fontSize=16;strokeColor=#000000;" parent="1" vertex="1">
          <mxGeometry x="-1130" y="-870" width="190" height="400" as="geometry" />
        </mxCell>
        <mxCell id="XKD9G24x41NN4T1CnMsb-70" value="&lt;div style=&quot;text-align: center; box-sizing: border-box; width: 100%; background: rgb(228, 228, 228); padding: 2px; font-size: 16px;&quot;&gt;&lt;b style=&quot;font-size: 16px;&quot;&gt;order(helper)&lt;/b&gt;&lt;/div&gt;&lt;table style=&quot;width: 100%; font-size: 16px;&quot; cellpadding=&quot;2&quot; cellspacing=&quot;0&quot;&gt;&lt;tbody style=&quot;font-size: 16px;&quot;&gt;&lt;tr style=&quot;font-size: 16px;&quot;&gt;&lt;td style=&quot;font-size: 16px;&quot;&gt;PK&lt;br&gt;&lt;/td&gt;&lt;td style=&quot;font-size: 16px;&quot;&gt;_Id&lt;br style=&quot;font-size: 16px;&quot;&gt;&lt;/td&gt;&lt;/tr&gt;&lt;tr style=&quot;font-size: 16px;&quot;&gt;&lt;td style=&quot;font-size: 16px;&quot;&gt;FK&lt;/td&gt;&lt;td style=&quot;font-size: 16px;&quot;&gt;helper_ObjectId&lt;br&gt;&lt;/td&gt;&lt;/tr&gt;&lt;tr style=&quot;font-size: 16px;&quot;&gt;&lt;td style=&quot;font-size: 16px;&quot;&gt;FK&lt;/td&gt;&lt;td style=&quot;font-size: 16px;&quot;&gt;job_ObjectId&lt;br&gt;&lt;/td&gt;&lt;/tr&gt;&lt;tr&gt;&lt;td&gt;&lt;br&gt;&lt;/td&gt;&lt;td&gt;isApply: Boolean&lt;br&gt;anwser: String&lt;br&gt;review: Boolean&lt;br&gt;date: Date&lt;br&gt;&lt;/td&gt;&lt;/tr&gt;&lt;/tbody&gt;&lt;/table&gt;" style="verticalAlign=top;align=left;overflow=fill;html=1;shadow=1;labelBorderColor=default;fontSize=16;" parent="1" vertex="1">
          <mxGeometry x="-830" y="-580" width="190" height="180" as="geometry" />
        </mxCell>
        <mxCell id="gedQf1WDRl3B_7xfSF77-23" value="" style="endArrow=ERone;html=1;rounded=0;strokeWidth=2;exitX=-0.005;exitY=0.328;exitDx=0;exitDy=0;exitPerimeter=0;endFill=0;startArrow=ERoneToMany;startFill=0;targetPerimeterSpacing=0;sourcePerimeterSpacing=0;startSize=10;" edge="1" parent="1" source="XKD9G24x41NN4T1CnMsb-70">
          <mxGeometry width="50" height="50" relative="1" as="geometry">
            <mxPoint x="-680" y="-510" as="sourcePoint" />
            <mxPoint x="-940" y="-830" as="targetPoint" />
            <Array as="points">
              <mxPoint x="-890" y="-521" />
              <mxPoint x="-890" y="-830" />
            </Array>
          </mxGeometry>
        </mxCell>
        <mxCell id="gedQf1WDRl3B_7xfSF77-24" value="" style="endArrow=ERone;html=1;rounded=0;labelBackgroundColor=default;fontFamily=Helvetica;fontSize=11;fontColor=default;startSize=10;strokeColor=default;strokeWidth=2;shape=connector;exitX=0;exitY=0.444;exitDx=0;exitDy=0;exitPerimeter=0;entryX=0.003;entryY=0.133;entryDx=0;entryDy=0;entryPerimeter=0;endFill=0;startArrow=ERoneToMany;startFill=0;" edge="1" parent="1" source="XKD9G24x41NN4T1CnMsb-70" target="gedQf1WDRl3B_7xfSF77-27">
          <mxGeometry width="50" height="50" relative="1" as="geometry">
            <mxPoint x="-680" y="-510" as="sourcePoint" />
            <mxPoint x="-832.0899999999999" y="-854.9" as="targetPoint" />
            <Array as="points">
              <mxPoint x="-870" y="-500" />
              <mxPoint x="-870" y="-865" />
            </Array>
          </mxGeometry>
        </mxCell>
        <mxCell id="gedQf1WDRl3B_7xfSF77-25" value="" style="endArrow=ERone;html=1;rounded=0;labelBackgroundColor=default;fontFamily=Helvetica;fontSize=11;fontColor=default;startSize=10;strokeColor=default;strokeWidth=2;shape=connector;exitX=0.006;exitY=0.238;exitDx=0;exitDy=0;exitPerimeter=0;endFill=0;startArrow=ERoneToMany;startFill=0;entryX=0.999;entryY=0.08;entryDx=0;entryDy=0;entryPerimeter=0;" edge="1" parent="1" source="gedQf1WDRl3B_7xfSF77-27" target="XKD9G24x41NN4T1CnMsb-26">
          <mxGeometry width="50" height="50" relative="1" as="geometry">
            <mxPoint x="-831.71" y="-830.2" as="sourcePoint" />
            <mxPoint x="-920" y="-840" as="targetPoint" />
            <Array as="points" />
          </mxGeometry>
        </mxCell>
        <mxCell id="gedQf1WDRl3B_7xfSF77-27" value="&lt;div style=&quot;text-align: center; box-sizing: border-box; width: 100%; background: rgb(228, 228, 228); padding: 2px; line-height: 1.2; font-size: 16px;&quot;&gt;&lt;b style=&quot;font-size: 16px;&quot;&gt;job(host)&lt;/b&gt;&lt;/div&gt;&lt;table style=&quot;width: 100%; font-size: 16px;&quot; cellpadding=&quot;2&quot; cellspacing=&quot;0&quot;&gt;&lt;tbody style=&quot;font-size: 16px;&quot;&gt;&lt;tr style=&quot;font-size: 16px;&quot;&gt;&lt;td style=&quot;font-size: 16px;&quot;&gt;PK&lt;/td&gt;&lt;td style=&quot;font-size: 16px;&quot;&gt;_Id&lt;/td&gt;&lt;/tr&gt;&lt;tr style=&quot;font-size: 16px;&quot;&gt;&lt;td style=&quot;font-size: 16px;&quot;&gt;FK&lt;/td&gt;&lt;td style=&quot;font-size: 16px;&quot;&gt;host__ObjectId&lt;br&gt;&lt;/td&gt;&lt;/tr&gt;&lt;tr style=&quot;font-size: 16px;&quot;&gt;&lt;td style=&quot;font-size: 16px;&quot;&gt;&lt;br&gt;&lt;/td&gt;&lt;td style=&quot;font-size: 16px;&quot;&gt;title:String&lt;br style=&quot;font-size: 16px;&quot;&gt;&lt;/td&gt;&lt;/tr&gt;&lt;tr&gt;&lt;td&gt;&lt;br&gt;&lt;/td&gt;&lt;td&gt;place: String&lt;br&gt;&lt;/td&gt;&lt;/tr&gt;&lt;tr&gt;&lt;td&gt;&lt;br&gt;&lt;/td&gt;&lt;td&gt;time: String&lt;br&gt;&lt;/td&gt;&lt;/tr&gt;&lt;tr&gt;&lt;td&gt;&lt;br&gt;&lt;/td&gt;&lt;td&gt;description: String&lt;br&gt;&lt;/td&gt;&lt;/tr&gt;&lt;tr&gt;&lt;td&gt;&lt;br&gt;&lt;/td&gt;&lt;td&gt;welfare: [String]&lt;br&gt;&lt;/td&gt;&lt;/tr&gt;&lt;tr&gt;&lt;td&gt;&lt;br&gt;&lt;/td&gt;&lt;td&gt;category: [String]&lt;/td&gt;&lt;/tr&gt;&lt;tr&gt;&lt;td&gt;&lt;br&gt;&lt;/td&gt;&lt;td&gt;isShow: Boolean&lt;br&gt;&lt;/td&gt;&lt;/tr&gt;&lt;tr&gt;&lt;td&gt;&lt;br&gt;&lt;/td&gt;&lt;td&gt;date: Date&lt;br&gt;&lt;/td&gt;&lt;/tr&gt;&lt;tr&gt;&lt;td&gt;&lt;br&gt;&lt;/td&gt;&lt;td&gt;question: String&lt;br&gt;&lt;/td&gt;&lt;/tr&gt;&lt;/tbody&gt;&lt;/table&gt;" style="verticalAlign=top;align=left;overflow=fill;html=1;shadow=1;labelBorderColor=default;fontSize=16;" vertex="1" parent="1">
          <mxGeometry x="-830" y="-900" width="190" height="260" as="geometry" />
        </mxCell>
      </root>
    </mxGraphModel>
  </diagram>
</mxfile>
